<?xml version="1.0" standalone="no"?><!DOCTYPE svg PUBLIC "-//W3C//DTD SVG 1.1//EN" "http://www.w3.org/Graphics/SVG/1.1/DTD/svg11.dtd"><svg t="1512110520611" class="icon" style="" viewBox="0 0 1123 1024" version="1.1" xmlns="http://www.w3.org/2000/svg" p-id="11157" xmlns:xlink="http://www.w3.org/1999/xlink" width="17.546875" height="16"><defs><style type="text/css"></style></defs><path d="M561.539105 1024c-7.487188 0-14.974376-2.495729-19.965835-4.991459C519.111706 1004.034165 0 674.59789 0 312.717134 0 230.358066 32.444482 150.494726 92.341986 93.092951 149.743761 33.195447 229.607101 0.750965 311.966169 0.750965c99.829174 0 192.17116 47.418858 249.572936 124.786468 84.854798-114.80355 244.581477-159.726679 379.350861-97.333445 109.812092 49.914587 182.188243 162.222408 182.188243 284.513146C1123.078209 674.59789 603.966504 1004.034165 581.504939 1019.008541c-4.991459 2.495729-12.478647 4.991459-19.965834 4.991459z m-249.572936-948.377154C182.188243 75.622846 74.871881 182.939208 74.871881 312.717134c0 284.513146 391.829509 566.530563 486.667224 628.923797C656.37682 879.247697 1048.206329 597.230281 1048.206329 312.717134c0-92.341986-54.906046-177.196784-139.760844-214.632724-117.29928-54.906046-259.555853-2.495729-311.966169 117.299279-4.991459 12.478647-19.965835 22.461564-34.940211 22.461565-14.974376 0-27.453023-7.487188-34.940211-22.461565C489.162953 130.528891 404.308155 75.622846 311.966169 75.622846z" p-id="11158" fill="#333333"></path></svg>